<svg width="18" height="18" viewBox="0 0 18 18" fill="none" xmlns="http://www.w3.org/2000/svg">
<path d="M9 18C8.66447 18 8.38303 17.889 8.15566 17.6672C7.92829 17.4453 7.815 17.171 7.81579 16.8443V3.92937L2.04276 9.5634C1.80592 9.79454 1.52447 9.91011 1.19842 9.91011C0.872368 9.91011 0.591315 9.79454 0.355263 9.5634C0.118421 9.33226 0 9.0626 0 8.75441C0 8.44623 0.118421 8.17656 0.355263 7.94542L8.17105 0.317816C8.28947 0.202247 8.41776 0.120577 8.55592 0.0728087C8.69408 0.0250398 8.8421 0.000770465 9 0C9.15789 0 9.31105 0.0242693 9.45947 0.0728087C9.60789 0.121348 9.73105 0.203017 9.82895 0.317816L17.6447 7.94542C17.8816 8.17656 18 8.44623 18 8.75441C18 9.0626 17.8816 9.33226 17.6447 9.5634C17.4079 9.79454 17.1264 9.91011 16.8004 9.91011C16.4743 9.91011 16.1933 9.79454 15.9572 9.5634L10.1842 3.92937V16.8443C10.1842 17.1717 10.0705 17.4464 9.84316 17.6683C9.61579 17.8902 9.33474 18.0008 9 18Z" fill="white"/>
</svg>
